#!OML:ASF X:\für Bonn\!DataBase\2005_08_11_Bastian_Final\c3d\Bastian.ASF
:FULLY-SPECIFIED
:DEGREES
50
root 3.60662 21.6149 -10.035 1076.53 0.53204 -4.27532
lowerback 12.3207 0.697882 0.302671
upperback 7.49969 0.951036 -0.546987
thorax 0.955498 0.498498 -0.843854
lowerneck -15.1157 -5.95012 -7.552
upperneck 1.93304 -7.29904 10.9415
head 3.71207 -3.17094 4.01811
rclavicle -2.66371e-014 -6.36111e-015
rhumerus -40.8224 21.8303 -91.7626
rradius 62.5908
rwrist 5.92537
rhand -17.3237 16.5878
rfingers 7.12502
rthumb 8.92297 -13.2035
lclavicle -2.66371e-014 -6.36111e-015
lhumerus -34.7146 -4.96612 83.4007
lradius 76.6216
lwrist -167.019
lhand -18.9099 5.59578
lfingers 7.12502
lthumb 7.39209 35.4466
rfemur -15.6101 -6.21562 27.8899
rtibia 60.3268
rfoot 0.938219 -2.32635
rtoes -17.8987
lfemur -23.7909 0.562338 -15.3092
ltibia 64.3347
lfoot 15.5316 -7.85925
ltoes -35.0877
51
root 3.6129 21.5971 -9.79139 1076.56 0.317292 -4.15685
lowerback 13.0146 0.858113 0.182682
upperback 7.68759 1.14837 -0.581481
thorax 0.783935 0.593882 -0.844523
lowerneck -14.9924 -6.03266 -7.52857
upperneck 1.41161 -7.38713 11.0252
head 3.5458 -3.22362 4.0389
rclavicle -7.95139e-015 1.27222e-014
rhumerus -40.3232 21.822 -92.0257
rradius 61.2472
rwrist 5.81772
rhand -17.3775 16.3917
rfingers 7.12502
rthumb 8.87109 -13.4018
lclavicle -7.95139e-015 1.27222e-014
lhumerus -34.874 -4.16564 83.3416
lradius 75.8445
lwrist -167.518
lhand -18.5427 6.07451
lfingers 7.12502
lthumb 7.74656 35.9126
rfemur -16.5766 -6.26713 27.7368
rtibia 59.8454
rfoot -0.215693 -1.53813
rtoes -19.283
lfemur -23.8143 0.209014 -15.2744
ltibia 61.9121
lfoot 14.9952 -8.30301
ltoes -35.222
52
root 3.61975 21.5628 -9.54606 1076.63 0.109328 -4.00491
lowerback 13.6157 1.0232 0.0587426
upperback 7.88563 1.34955 -0.639226
thorax 0.674754 0.69173 -0.868918
lowerneck -15.1079 -6.14109 -7.55171
upperneck 1.06887 -7.50404 11.1557
head 3.47809 -3.27852 4.07324
rclavicle 1.47101e-014 -2.78299e-014
rhumerus -39.8349 21.7001 -92.2324
rradius 59.9806
rwrist 5.77307
rhand -17.2591 16.2778
rfingers 7.12502
rthumb 8.98537 -13.5108
lclavicle 1.47101e-014 -2.78299e-014
lhumerus -34.9097 -3.433 83.2407
lradius 74.9965
lwrist -168.036
lhand -18.1977 6.32305
lfingers 7.12502
lthumb 8.07955 36.1486
rfemur -17.5568 -6.34788 27.5459
rtibia 59.2993
rfoot -1.16664 -0.872803
rtoes -20.9904
lfemur -23.8162 -0.137119 -15.2566
ltibia 59.4177
lfoot 14.4834 -8.64064
ltoes -34.398
53
root 3.62599 21.5161 -9.29703 1076.68 -0.0913231 -3.88031
lowerback 14.1689 1.19311 -0.0616586
upperback 8.10322 1.55611 -0.66222
thorax 0.612278 0.791681 -0.861261
lowerneck -15.3418 -6.28749 -7.65902
upperneck 0.844601 -7.66079 11.3226
head 3.47358 -3.34627 4.12528
rclavicle 2.78299e-015 7.95139e-016
rhumerus -39.3228 21.4828 -92.3512
rradius 58.7111
rwrist 5.78607
rhand -17.1182 16.2689
rfingers 7.12502
rthumb 9.12128 -13.5139
lclavicle 2.78299e-015 7.95139e-016
lhumerus -34.8062 -2.67653 83.1565
lradius 74.1084
lwrist -168.66
lhand -18.0172 6.37849
lfingers 7.12502
lthumb 8.25369 36.1973
rfemur -18.4703 -6.40743 27.3965
rtibia 58.7087
rfoot -2.02744 -0.312559
rtoes -22.7593
lfemur -23.7278 -0.497461 -15.181
ltibia 56.8492
lfoot 13.9921 -8.88341
ltoes -32.93
54
root 3.632 21.4557 -9.04636 1076.8 -0.228231 -3.76203
lowerback 14.6686 1.33209 -0.191049
upperback 8.26036 1.71948 -0.670043
thorax 0.513804 0.869096 -0.828776
lowerneck -15.409 -6.40694 -7.81238
upperneck 0.59036 -7.77999 11.4887
head 3.43258 -3.40158 4.1914
rclavicle -2.74323e-014 1.59028e-015
rhumerus -38.9025 21.1753 -92.4493
rradius 57.5643
rwrist 5.81926
rhand -16.8736 16.2592
rfingers 7.12502
rthumb 9.35734 -13.5131
lclavicle -2.74323e-014 1.59028e-015
lhumerus -34.7451 -1.90651 83.0554
lradius 73.2859
lwrist -169.326
lhand -17.882 6.253
lfingers 7.12502
lthumb 8.3842 36.0666
rfemur -19.4506 -6.55512 27.2665
rtibia 58.0881
rfoot -2.88048 0.197896
rtoes -24.6287
lfemur -23.6511 -0.900528 -15.0912
ltibia 54.2338
lfoot 13.532 -9.13109
ltoes -31.6175
55
root 3.63757 21.3846 -8.79121 1077.01 -0.363438 -3.66902
lowerback 15.0484 1.47083 -0.279917
upperback 8.35838 1.88648 -0.698605
thorax 0.418347 0.950005 -0.840703
lowerneck -15.3528 -6.52766 -7.9655
upperneck 0.30259 -7.91036 11.7252
head 3.36775 -3.46398 4.28108
rclavicle -3.16068e-014 2.46493e-014
rhumerus -38.5499 20.712 -92.5765
rradius 56.4647
rwrist 5.94995
rhand -16.6706 16.3016
rfingers 7.12502
rthumb 9.55316 -13.4619
lclavicle -3.16068e-014 2.46493e-014
lhumerus -34.6661 -1.19645 82.8756
lradius 72.5577
lwrist -169.955
lhand -17.9051 5.97465
lfingers 7.12502
lthumb 8.36191 35.7891
rfemur -20.517 -6.64595 27.1924
rtibia 57.4345
rfoot -3.59766 0.644867
rtoes -26.2286
lfemur -23.61 -1.26421 -14.9445
ltibia 51.5669
lfoot 13.192 -9.31925
ltoes -30.4307
56
root 3.64299 21.3035 -8.53211 1077.31 -0.459561 -3.54539
lowerback 15.3812 1.58289 -0.452917
upperback 8.30757 2.00636 -0.692947
thorax 0.185227 1.00342 -0.765497
lowerneck -15.0565 -6.59173 -8.16924
upperneck 0.0324942 -7.96877 11.9082
head 3.26363 -3.50101 4.37401
rclavicle 9.93923e-016 -4.77083e-015
rhumerus -38.4758 20.1056 -92.6867
rradius 55.421
rwrist 6.22603
rhand -16.4688 16.4998
rfingers 7.12502
rthumb 9.7479 -13.2546
lclavicle 9.93923e-016 -4.77083e-015
lhumerus -34.7794 -0.418812 82.7102
lradius 71.8478
lwrist -170.606
lhand -17.9598 5.6581
lfingers 7.12502
lthumb 8.30916 35.4747
rfemur -21.6688 -6.72708 27.1097
rtibia 56.7405
rfoot -4.10199 1.03544
rtoes -27.5116
lfemur -23.6297 -1.64714 -14.8232
ltibia 48.9014
lfoot 12.9977 -9.48644
ltoes -29.7469
57
root 3.64839 21.2118 -8.27058 1077.65 -0.552103 -3.38886
lowerback 15.67 1.70344 -0.628217
upperback 8.21888 2.13516 -0.725723
thorax -0.0637815 1.06242 -0.731097
lowerneck -14.6579 -6.65178 -8.31613
upperneck -0.287243 -8.03505 12.0894
head 3.12756 -3.54639 4.45948
rclavicle -1.78906e-015 -6.36111e-015
rhumerus -38.4621 19.4154 -92.8136
rradius 54.413
rwrist 6.47586
rhand -16.391 16.6946
rfingers 7.12502
rthumb 9.82294 -13.0563
lclavicle -1.78906e-015 -6.36111e-015
lhumerus -34.8991 0.266629 82.4953
lradius 71.1207
lwrist -171.225
lhand -18.0815 5.33002
lfingers 7.12502
lthumb 8.1917 35.1512
rfemur -22.8484 -6.81964 27.0125
rtibia 56.0123
rfoot -4.2002 1.48369
rtoes -29.3243
lfemur -23.6723 -2.00053 -14.7277
ltibia 46.2654
lfoot 12.9383 -9.59072
ltoes -29.4518
58
root 3.65341 21.1113 -8.00729 1078.05 -0.637637 -3.29291
lowerback 15.8708 1.80518 -0.763688
upperback 8.09895 2.24492 -0.727013
thorax -0.300216 1.11275 -0.68221
lowerneck -14.1347 -6.69213 -8.52458
upperneck -0.733121 -8.06391 12.2907
head 2.93435 -3.57946 4.56916
rclavicle -6.75868e-015 4.77083e-015
rhumerus -38.5 18.6035 -92.8906
rradius 53.3834
rwrist 6.80766
rhand -16.4042 16.9065
rfingers 7.12502
rthumb 9.81022 -12.845
lclavicle -6.75868e-015 4.77083e-015
lhumerus -34.9836 0.960027 82.2782
lradius 70.1956
lwrist -171.765
lhand -18.1424 5.20911
lfingers 7.12502
lthumb 8.13291 35.0326
rfemur -24.0379 -6.89675 26.9958
rtibia 55.2296
rfoot -3.91062 1.87903
rtoes -30.7146
lfemur -23.7928 -2.33123 -14.549
ltibia 43.7261
lfoot 13.024 -9.64146
ltoes -29.2503
59
root 3.66094 21 -7.74064 1078.44 -0.743284 -3.19658
lowerback 16.0396 1.89657 -0.871996
upperback 7.95996 2.3441 -0.739254
thorax -0.538945 1.15906 -0.658532
lowerneck -13.5547 -6.71721 -8.71953
upperneck -1.24532 -8.07424 12.4975
head 2.71081 -3.60659 4.68276
rclavicle 2.46493e-014 -7.95139e-015
rhumerus -38.612 17.6679 -92.9471
rradius 52.3682
rwrist 7.15017
rhand -16.5074 17.1279
rfingers 7.12502
rthumb 9.71062 -12.6283
lclavicle 2.46493e-014 -7.95139e-015
lhumerus -35.0038 1.60566 82.0363
lradius 69.0352
lwrist -172.205
lhand -18.1093 5.16114
lfingers 7.12502
lthumb 8.1648 34.9834
rfemur -25.18 -6.96709 26.9683
rtibia 54.4145
rfoot -3.42048 2.27896
rtoes -31.9237
lfemur -23.8659 -2.68066 -14.3718
ltibia 41.3073
lfoot 13.0689 -9.55828
ltoes -29.4647
60
root 3.66802 20.8779 -7.47271 1078.85 -0.843908 -3.18877
lowerback 16.1704 1.98551 -0.918809
upperback 7.80155 2.44973 -0.704914
thorax -0.778264 1.20951 -0.621609
lowerneck -12.8933 -6.73314 -8.92348
upperneck -1.88507 -8.06569 12.6763
head 2.43381 -3.63053 4.79517
rclavicle -4.87022e-014 3.26007e-014
rhumerus -38.8071 16.7446 -92.9673
rradius 51.4056
rwrist 7.3932
rhand -16.7735 17.2466
rfingers 7.12502
rthumb 9.45392 -12.5214
lclavicle -4.87022e-014 3.26007e-014
lhumerus -35.0226 2.25793 81.8367
lradius 67.8056
lwrist -172.582
lhand -18.0393 5.09391
lfingers 7.12502
lthumb 8.23242 34.9135
rfemur -26.2883 -7.00895 27.0384
rtibia 53.5745
rfoot -2.91307 2.64884
rtoes -32.9249
lfemur -23.9863 -2.98998 -14.0854
ltibia 39.0781
lfoot 13.0922 -9.37206
ltoes -30.1196
61
root 3.67571 20.7421 -7.20285 1079.22 -0.919995 -3.18653
lowerback 16.3314 2.0567 -0.936578
upperback 7.63088 2.53508 -0.692794
thorax -1.0444 1.2511 -0.622981
lowerneck -12.2227 -6.72758 -9.0545
upperneck -2.57456 -8.03639 12.8525
head 2.13605 -3.64582 4.89867
rclavicle 3.18055e-015 2.14687e-014
rhumerus -38.9787 15.6564 -92.9772
rradius 50.3861
rwrist 7.62891
rhand -17.011 17.3218
rfingers 7.12502
rthumb 9.22477 -12.4564
lclavicle 3.18055e-015 2.14687e-014
lhumerus -35.0732 2.8649 81.5669
lradius 66.5276
lwrist -172.84
lhand -17.9601 4.97259
lfingers 7.12502
lthumb 8.30883 34.7892
rfemur -27.3017 -7.06356 27.1147
rtibia 52.7544
rfoot -2.5108 3.0383
rtoes -33.758
lfemur -24.1557 -3.29833 -13.8047
ltibia 37.0753
lfoot 13.0472 -9.1797
ltoes -31.4961
62
root 3.68452 20.5896 -6.92967 1079.58 -0.99937 -3.24084
lowerback 16.4109 2.11158 -0.887494
upperback 7.49161 2.61132 -0.659582
thorax -1.23289 1.28929 -0.635088
lowerneck -11.6267 -6.71132 -9.30817
upperneck -3.26642 -7.97513 13.1659
head 1.859 -3.63892 5.06596
rclavicle -1.41137e-014 -1.43125e-014
rhumerus -39.0983 14.5712 -92.9275
rradius 49.3623
rwrist 7.88324
rhand -17.3945 17.2807
rfingers 7.12502
rthumb 8.85469 -12.5136
lclavicle -1.41137e-014 -1.43125e-014
lhumerus -35.1204 3.41093 81.3276
lradius 65.2383
lwrist -172.984
lhand -17.8069 4.79144
lfingers 7.12502
lthumb 8.45674 34.6021
rfemur -28.2471 -7.0723 27.2526
rtibia 51.9646
rfoot -2.12977 3.40066
rtoes -34.2922
lfemur -24.4114 -3.63018 -13.4606
ltibia 35.353
lfoot 12.9394 -8.95633
ltoes -32.653
63
root 3.69406 20.4178 -6.65354 1079.87 -1.05714 -3.32448
lowerback 16.4991 2.15432 -0.783979
upperback 7.35766 2.68004 -0.626861
thorax -1.41778 1.32477 -0.677582
lowerneck -11.0684 -6.70515 -9.58536
upperneck -3.9403 -7.92421 13.5043
head 1.59707 -3.63549 5.24362
rclavicle -1.41137e-014 1.59028e-014
rhumerus -39.2499 13.4296 -92.8674
rradius 48.3839
rwrist 7.98315
rhand -17.7447 17.1223
rfingers 7.12502
rthumb 8.51669 -12.686
lclavicle -1.41137e-014 1.59028e-014
lhumerus -35.1891 3.92324 81.0661
lradius 63.9051
lwrist -173.05
lhand -17.6369 4.60427
lfingers 7.12502
lthumb 8.62079 34.4083
rfemur -29.0808 -7.05384 27.4269
rtibia 51.2186
rfoot -1.86817 3.74056
rtoes -35.1471
lfemur -24.6914 -3.90225 -13.1029
ltibia 33.9316
lfoot 12.8901 -8.7372
ltoes -33.3327
